<mxfile host="app.diagrams.net" agent="Mozilla/5.0 (Windows NT 10.0; Win64; x64) AppleWebKit/537.36 (KHTML, like Gecko) Chrome/131.0.0.0 Safari/537.36" version="24.9.2">
  <diagram id="R2lEEEUBdFMjLlhIrx00" name="Page-1">
    <mxGraphModel dx="1235" dy="614" grid="1" gridSize="10" guides="1" tooltips="1" connect="1" arrows="1" fold="1" page="1" pageScale="1" pageWidth="850" pageHeight="1100" math="0" shadow="0" extFonts="Permanent Marker^https://fonts.googleapis.com/css?family=Permanent+Marker">
      <root>
        <mxCell id="0" />
        <mxCell id="1" parent="0" />
        <mxCell id="IoZYs64p9hqiGjjuG87p-20" value="" style="rounded=0;whiteSpace=wrap;html=1;fillColor=#fff2cc;gradientColor=#ffd966;strokeColor=#d6b656;" vertex="1" parent="1">
          <mxGeometry x="350" y="190" width="120" height="120" as="geometry" />
        </mxCell>
        <mxCell id="IoZYs64p9hqiGjjuG87p-8" style="edgeStyle=orthogonalEdgeStyle;rounded=0;orthogonalLoop=1;jettySize=auto;html=1;exitX=1;exitY=0.5;exitDx=0;exitDy=0;entryX=0;entryY=0.5;entryDx=0;entryDy=0;" edge="1" parent="1" source="IoZYs64p9hqiGjjuG87p-1" target="IoZYs64p9hqiGjjuG87p-2">
          <mxGeometry relative="1" as="geometry" />
        </mxCell>
        <mxCell id="IoZYs64p9hqiGjjuG87p-1" value="&lt;h1&gt;&lt;font face=&quot;Tahoma&quot;&gt;Alumno&lt;/font&gt;&lt;/h1&gt;" style="rounded=0;whiteSpace=wrap;html=1;fillColor=#dae8fc;strokeColor=#6c8ebf;" vertex="1" parent="1">
          <mxGeometry x="130" y="220" width="120" height="60" as="geometry" />
        </mxCell>
        <mxCell id="IoZYs64p9hqiGjjuG87p-2" value="&lt;p&gt;&lt;font style=&quot;font-size: 14px;&quot; face=&quot;Tahoma&quot;&gt;matriculado&lt;/font&gt;&lt;/p&gt;&lt;p&gt;&lt;font style=&quot;font-size: 14px;&quot; face=&quot;Tahoma&quot;&gt;en&lt;/font&gt;&lt;/p&gt;" style="rhombus;whiteSpace=wrap;html=1;fillColor=#ffe6cc;strokeColor=#d79b00;rotation=0;" vertex="1" parent="1">
          <mxGeometry x="350" y="190" width="120" height="120" as="geometry" />
        </mxCell>
        <mxCell id="IoZYs64p9hqiGjjuG87p-29" style="edgeStyle=orthogonalEdgeStyle;rounded=0;orthogonalLoop=1;jettySize=auto;html=1;exitX=0;exitY=0.5;exitDx=0;exitDy=0;" edge="1" parent="1" source="IoZYs64p9hqiGjjuG87p-3" target="IoZYs64p9hqiGjjuG87p-2">
          <mxGeometry relative="1" as="geometry" />
        </mxCell>
        <mxCell id="IoZYs64p9hqiGjjuG87p-3" value="&lt;h1&gt;&lt;font face=&quot;Tahoma&quot;&gt;Asignatura&lt;/font&gt;&lt;/h1&gt;" style="rounded=0;whiteSpace=wrap;html=1;fillColor=#dae8fc;strokeColor=#6c8ebf;rotation=0;" vertex="1" parent="1">
          <mxGeometry x="580" y="220" width="140" height="60" as="geometry" />
        </mxCell>
        <mxCell id="IoZYs64p9hqiGjjuG87p-10" style="edgeStyle=orthogonalEdgeStyle;rounded=0;orthogonalLoop=1;jettySize=auto;html=1;exitX=0.5;exitY=1;exitDx=0;exitDy=0;entryX=0.5;entryY=0;entryDx=0;entryDy=0;" edge="1" parent="1" source="IoZYs64p9hqiGjjuG87p-4" target="IoZYs64p9hqiGjjuG87p-1">
          <mxGeometry relative="1" as="geometry" />
        </mxCell>
        <mxCell id="IoZYs64p9hqiGjjuG87p-4" value="&lt;h3&gt;&lt;font style=&quot;font-size: 14px;&quot; face=&quot;Tahoma&quot;&gt;&lt;u&gt;DNI (PK)&lt;/u&gt;&lt;/font&gt;&lt;/h3&gt;" style="ellipse;whiteSpace=wrap;html=1;fillColor=#735000;fontColor=#000000;strokeColor=#B09500;rotation=0;" vertex="1" parent="1">
          <mxGeometry x="140" y="80" width="100" height="60" as="geometry" />
        </mxCell>
        <mxCell id="IoZYs64p9hqiGjjuG87p-11" style="edgeStyle=orthogonalEdgeStyle;rounded=0;orthogonalLoop=1;jettySize=auto;html=1;exitX=0.5;exitY=0;exitDx=0;exitDy=0;entryX=0.25;entryY=1;entryDx=0;entryDy=0;" edge="1" parent="1" source="IoZYs64p9hqiGjjuG87p-5" target="IoZYs64p9hqiGjjuG87p-1">
          <mxGeometry relative="1" as="geometry" />
        </mxCell>
        <mxCell id="IoZYs64p9hqiGjjuG87p-5" value="&lt;h3&gt;&lt;font face=&quot;Tahoma&quot;&gt;&lt;span style=&quot;font-size: 14px;&quot;&gt;Nombre&lt;/span&gt;&lt;/font&gt;&lt;/h3&gt;" style="ellipse;whiteSpace=wrap;html=1;fillColor=#735000;fontColor=#000000;strokeColor=#B09500;rotation=0;" vertex="1" parent="1">
          <mxGeometry x="10" y="350" width="100" height="60" as="geometry" />
        </mxCell>
        <mxCell id="IoZYs64p9hqiGjjuG87p-6" value="&lt;h3&gt;&lt;font style=&quot;font-size: 14px;&quot; face=&quot;Tahoma&quot;&gt;Apellidos&lt;/font&gt;&lt;/h3&gt;" style="ellipse;whiteSpace=wrap;html=1;fillColor=#735000;fontColor=#000000;strokeColor=#B09500;rotation=0;" vertex="1" parent="1">
          <mxGeometry x="220" y="350" width="100" height="60" as="geometry" />
        </mxCell>
        <mxCell id="IoZYs64p9hqiGjjuG87p-27" value="" style="edgeStyle=orthogonalEdgeStyle;rounded=0;orthogonalLoop=1;jettySize=auto;html=1;" edge="1" parent="1" source="IoZYs64p9hqiGjjuG87p-7" target="IoZYs64p9hqiGjjuG87p-3">
          <mxGeometry relative="1" as="geometry" />
        </mxCell>
        <mxCell id="IoZYs64p9hqiGjjuG87p-7" value="&lt;h3&gt;&lt;font style=&quot;font-size: 14px;&quot; face=&quot;Tahoma&quot;&gt;Nombre&lt;/font&gt;&lt;/h3&gt;" style="ellipse;whiteSpace=wrap;html=1;fillColor=#735000;fontColor=#000000;strokeColor=#B09500;rotation=0;" vertex="1" parent="1">
          <mxGeometry x="600" y="340" width="100" height="60" as="geometry" />
        </mxCell>
        <mxCell id="IoZYs64p9hqiGjjuG87p-13" style="edgeStyle=orthogonalEdgeStyle;rounded=0;orthogonalLoop=1;jettySize=auto;html=1;exitX=0.5;exitY=0;exitDx=0;exitDy=0;entryX=0.667;entryY=1;entryDx=0;entryDy=0;entryPerimeter=0;" edge="1" parent="1" source="IoZYs64p9hqiGjjuG87p-6" target="IoZYs64p9hqiGjjuG87p-1">
          <mxGeometry relative="1" as="geometry" />
        </mxCell>
        <mxCell id="IoZYs64p9hqiGjjuG87p-16" value="&lt;font style=&quot;font-size: 14px;&quot;&gt;1:N&lt;/font&gt;" style="text;html=1;align=center;verticalAlign=middle;resizable=0;points=[];autosize=1;strokeColor=#666666;fillColor=#f5f5f5;gradientColor=#b3b3b3;" vertex="1" parent="1">
          <mxGeometry x="280" y="220" width="50" height="30" as="geometry" />
        </mxCell>
        <mxCell id="IoZYs64p9hqiGjjuG87p-17" value="&lt;font style=&quot;font-size: 14px;&quot;&gt;1:N&lt;/font&gt;" style="text;html=1;align=center;verticalAlign=middle;resizable=0;points=[];autosize=1;strokeColor=#666666;fillColor=#f5f5f5;gradientColor=#b3b3b3;" vertex="1" parent="1">
          <mxGeometry x="500" y="220" width="50" height="30" as="geometry" />
        </mxCell>
        <mxCell id="IoZYs64p9hqiGjjuG87p-26" value="" style="edgeStyle=orthogonalEdgeStyle;rounded=0;orthogonalLoop=1;jettySize=auto;html=1;" edge="1" parent="1" source="IoZYs64p9hqiGjjuG87p-18" target="IoZYs64p9hqiGjjuG87p-3">
          <mxGeometry relative="1" as="geometry" />
        </mxCell>
        <mxCell id="IoZYs64p9hqiGjjuG87p-18" value="&lt;h3&gt;&lt;font style=&quot;font-size: 14px;&quot; face=&quot;Tahoma&quot;&gt;&lt;u&gt;Id Asignatura (PK)&lt;/u&gt;&lt;/font&gt;&lt;/h3&gt;" style="ellipse;whiteSpace=wrap;html=1;fillColor=#735000;fontColor=#000000;strokeColor=#B09500;rotation=0;" vertex="1" parent="1">
          <mxGeometry x="595" y="90" width="110" height="70" as="geometry" />
        </mxCell>
        <mxCell id="IoZYs64p9hqiGjjuG87p-23" value="" style="edgeStyle=orthogonalEdgeStyle;rounded=0;orthogonalLoop=1;jettySize=auto;html=1;" edge="1" parent="1" source="IoZYs64p9hqiGjjuG87p-21" target="IoZYs64p9hqiGjjuG87p-2">
          <mxGeometry relative="1" as="geometry" />
        </mxCell>
        <mxCell id="IoZYs64p9hqiGjjuG87p-21" value="&lt;h3&gt;&lt;font style=&quot;font-size: 14px;&quot; face=&quot;Tahoma&quot;&gt;Id Asignatura (FK)&lt;/font&gt;&lt;/h3&gt;" style="ellipse;whiteSpace=wrap;html=1;fillColor=#f5f5f5;strokeColor=#666666;rotation=0;gradientColor=#737373;" vertex="1" parent="1">
          <mxGeometry x="355" y="400" width="110" height="70" as="geometry" />
        </mxCell>
        <mxCell id="IoZYs64p9hqiGjjuG87p-25" value="" style="edgeStyle=orthogonalEdgeStyle;rounded=0;orthogonalLoop=1;jettySize=auto;html=1;" edge="1" parent="1" source="IoZYs64p9hqiGjjuG87p-22" target="IoZYs64p9hqiGjjuG87p-2">
          <mxGeometry relative="1" as="geometry" />
        </mxCell>
        <mxCell id="IoZYs64p9hqiGjjuG87p-22" value="&lt;h3&gt;&lt;font style=&quot;font-size: 14px;&quot; face=&quot;Tahoma&quot;&gt;DNI (FK)&lt;/font&gt;&lt;/h3&gt;" style="ellipse;whiteSpace=wrap;html=1;fillColor=#f5f5f5;strokeColor=#666666;rotation=0;gradientColor=#808080;" vertex="1" parent="1">
          <mxGeometry x="360" y="60" width="100" height="60" as="geometry" />
        </mxCell>
      </root>
    </mxGraphModel>
  </diagram>
</mxfile>
